PathFileType	4	(X/Y/Z)	/Users/niels/Desktop/University/Third Semester/Perception and Action/Exam/Gymnastics Motion Tracking/Code for Gym Tracking/Analyzed Data/Webcam_Backflip/id7_4_baseline_Sports2D/id7_4_baseline_Sports2D_px_person00.trc
DataRate	CameraRate	NumFrames	NumMarkers	Units	OrigDataRate	OrigDataStartFrame	OrigNumFrames
29.810126582278482	29.810126582278482	7	22	m	29.810126582278482	0	158
Frame#	Time	Hip			RHip			RKnee			RAnkle			RBigToe			RSmallToe			RHeel			LHip			LKnee			LAnkle			LBigToe			LSmallToe			LHeel			Neck			Head			Nose			RShoulder			RElbow			RWrist			LShoulder			LElbow			LWrist		
		X1	Y1	Z1	X2	Y2	Z2	X3	Y3	Z3	X4	Y4	Z4	X5	Y5	Z5	X6	Y6	Z6	X7	Y7	Z7	X8	Y8	Z8	X9	Y9	Z9	X10	Y10	Z10	X11	Y11	Z11	X12	Y12	Z12	X13	Y13	Z13	X14	Y14	Z14	X15	Y15	Z15	X16	Y16	Z16	X17	Y17	Z17	X18	Y18	Z18	X19	Y19	Z19	X20	Y20	Z20	X21	Y21	Z21	X22	Y22	Z22
0	0.0	0.949900398361471	-0.5057063623444621	0.0	0.9514834201658154	-0.5057007850198701	0.0	0.9624461055153923	-0.6176461764678053	0.0	0.95146758054114	-0.7247811400975307	0.0	0.9845802304635343	-0.7578450414442807	0.0	0.9767036688361159	-0.7594261468133124	0.0	0.9435897572151333	-0.7405325641562557	0.0	0.9467456603316444	-0.5041336986363707	0.0	0.9561444629565131	-0.6144982961674973	0.0	0.9467154812589771	-0.7153234984799439	0.0	0.9798083808658866	-0.735770999481643	0.0	0.9766471750408597	-0.7341881646277569	0.0	0.9341200888075468	-0.7263468435405948	0.0	0.9671879966987592	-0.3638962252505406	0.0	0.9908058546344383	-0.29455866449094287	0.0	1.0018445210054372	-0.33395863131145587	0.0	0.9640458599816399	-0.3733424848499751	0.0	0.8980116325970972	-0.38748980081629125	0.0	0.8303651758844708	-0.39368425283075703	0.0	0.962472655498669	-0.3765201786541449	0.0	0.9185067659329383	-0.40021921781895514	0.0	0.9406288867496571	-0.4095958081039186	0.0
1	0.03354564755838641	0.9472591932359383	-0.4993054207381908	0.0	0.9489954449233078	-0.49866658312818324	0.0	0.9642021248695624	-0.6099013253944474	0.0	0.951677452368506	-0.7175928723098759	0.0	0.9857001013692082	-0.7511907588009282	0.0	0.9776857905608726	-0.7524710022211982	0.0	0.9432420090784901	-0.7327199221201854	0.0	0.945383008441816	-0.49714249492066576	0.0	0.9583532291510773	-0.6073516763987805	0.0	0.9469190987283629	-0.7091071923766064	0.0	0.9811544939360363	-0.7310623257970648	0.0	0.9772806668621168	-0.7293212934721874	0.0	0.9342589307954371	-0.7204046474041543	0.0	0.9668146847371826	-0.3591125765441153	0.0	0.9923746965401192	-0.2903552631510059	0.0	1.0025550752680357	-0.3288434165547299	0.0	0.9624449043790296	-0.3674905422376946	0.0	0.8970400742951963	-0.38298203357775323	0.0	0.830028565490838	-0.38981544889218905	0.0	0.9637222828235916	-0.37086996122030097	0.0	0.9201006789532127	-0.3944526458061806	0.0	0.9383690440260934	-0.40340627853805844	0.0
2	0.06709129511677282	0.944728102562053	-0.49422691850666617	0.0	0.9464082283704989	-0.4930994573364716	0.0	0.9663032578056687	-0.6034039645474991	0.0	0.9516535740052876	-0.7114294173137693	0.0	0.9866792985538955	-0.7450627663100368	0.0	0.9784304475827846	-0.7462057970096121	0.0	0.9425712705811159	-0.726160972951092	0.0	0.9440458727957323	-0.4916157375786161	0.0	0.9606112346977356	-0.6014192728511681	0.0	0.946892410173979	-0.7038593297770597	0.0	0.9822542059866237	-0.7269359838017776	0.0	0.9776965202114849	-0.7250895509958711	0.0	0.934189134243546	-0.7153447283276695	0.0	0.9664881526010745	-0.35564885111228645	0.0	0.994072253123017	-0.2874335736910754	0.0	1.0034177728224016	-0.3251130951186519	0.0	0.9608414553695407	-0.3632769545152294	0.0	0.8961065951083528	-0.3805013057272538	0.0	0.8295866536746892	-0.38840241835727196	0.0	0.9645235004989956	-0.3666937844236895	0.0	0.9210181236680105	-0.3901839939994232	0.0	0.9330856520855756	-0.3994236613518403	0.0
3	0.10063694267515924	0.9422910588143185	-0.49172673636676384	0.0	0.9436485412433455	-0.49032993939336916	0.0	0.9689835195330834	-0.5992871422508776	0.0	0.9511646088094458	-0.7072519936216612	0.0	0.9871819186908419	-0.7401154154131355	0.0	0.9786049131386526	-0.7413293721604273	0.0	0.9412853233445505	-0.7218677713217074	0.0	0.9425462700843741	-0.48887415109293947	0.0	0.962917382966451	-0.5978068171794453	0.0	0.9463841317151266	-0.7004370337386301	0.0	0.9827606062265909	-0.7240507043305382	0.0	0.9775314948307638	-0.7221714473088944	0.0	0.9336703785928488	-0.7120452367405438	0.0	0.9662818727418035	-0.3547890193458188	0.0	0.9959793373315594	-0.2870381024557515	0.0	1.0045127397399347	-0.3240771936687477	0.0	0.9593802931756581	-0.36222356749865015	0.0	0.8954306636436794	-0.38192702003383855	0.0	0.8293681124777715	-0.3917762228830181	0.0	0.964424496509135	-0.36524333938046566	0.0	0.9206978581353711	-0.38872821119957074	0.0	0.9225038734570146	-0.3997726952556855	0.0
4	0.13418259023354565	0.9397902408018005	-0.4927415571899198	0.0	0.9406605613115636	-0.491291603543904	0.0	0.9723180170539865	-0.5982990534865542	0.0	0.9500331272316129	-0.7056316545438426	0.0	0.9867806408836691	-0.7369310436951003	0.0	0.9778614581549768	-0.7383493659287437	0.0	0.9391838263023581	-0.7202751198739425	0.0	0.9405188023296003	-0.4898296403071427	0.0	0.9652511773785706	-0.5971945935754174	0.0	0.945193562123116	-0.6992794397745256	0.0	0.9822886414948205	-0.7229010022777946	0.0	0.9763135432974426	-0.7210219233142556	0.0	0.932469993124459	-0.7110427827931961	0.0	0.9662976946431581	-0.35748312801415244	0.0	0.9980798595399443	-0.2901030376992427	0.0	1.005838150134416	-0.3266833511474779	0.0	0.9583754205045721	-0.365410495857634	0.0	0.8953595500099276	-0.38855615942763644	0.0	0.8300162104898305	-0.401633290726419	0.0	0.9631558930518941	-0.3672601850928396	0.0	0.9188631171292044	-0.3908581378876637	0.0	0.9063922132222937	-0.4060067932125818	0.0
5	0.16772823779193205	0.9370070539263213	-0.4979284796264273	0.0	0.9373766359812082	-0.4965961133961646	0.0	0.976150306874241	-0.6008276660884695	0.0	0.9481711363448445	-0.7067867405919284	0.0	0.9852004303321893	-0.7359990052636544	0.0	0.9760051701471631	-0.7376537765949416	0.0	0.9362307652398485	-0.7213826915382234	0.0	0.9376779266383776	-0.49506234767333185	0.0	0.9676102041787095	-0.5998525381293253	0.0	0.9433279575543204	-0.700517968556654	0.0	0.9806666873366225	-0.7238355956213531	0.0	0.973787365740536	-0.7219397287960901	0.0	0.9304821596172147	-0.712506573741026	0.0	0.9666276785141881	-0.3642915178537504	0.0	1.00017611711823	-0.29725188325118573	0.0	1.0072871871586853	-0.33349073229239146	0.0	0.9581719368786537	-0.37343516605542193	0.0	0.8963298188019424	-0.40100370296226634	0.0	0.8324210506872218	-0.4189155611171268	0.0	0.9608843401722829	-0.3731266782461675	0.0	0.9157505456183179	-0.3969433052881072	0.0	0.8879365646772585	-0.41890867865775244	0.0
6	0.20127388535031848	0.9337876386153784	-0.50768923910276	0.0	0.9337430532308538	-0.5065914618148665	0.0	0.9800672088546183	-0.60703006719644	0.0	0.9456409603674089	-0.7108670882232947	0.0	0.9825128723336602	-0.7378045890803201	0.0	0.9731661346581923	-0.7396868113471662	0.0	0.9326615131885128	-0.7251772502418607	0.0	0.9340347284741475	-0.5048873534816285	0.0	0.9699674233833628	-0.6058354903296964	0.0	0.9410656356519349	-0.7042918940306025	0.0	0.9781636064718839	-0.7272151736435393	0.0	0.9702623987698855	-0.7252700935661446	0.0	0.9278558411501382	-0.7165029440669717	0.0	0.9673001237614464	-0.37539608489444903	0.0	1.001887886847591	-0.3087918810160246	0.0	1.0086338940640758	-0.34465688065961003	0.0	0.9589354432255816	-0.3864105523104675	0.0	0.8988228637300747	-0.41922837789727957	0.0	0.8376655663089101	-0.4437217753392076	0.0	0.9582227491097214	-0.3830667280576978	0.0	0.9121305777020472	-0.4071305456611363	0.0	0.8727315671262269	-0.4383532088199347	0.0
